<svg height="512pt" viewBox="0 0 512 512.00054" width="512pt" xmlns="http://www.w3.org/2000/svg"><g fill="#00cc71"><path d="m189.996094 218.992188-63.898438 111.996093-43.847656 30-60.550781-30-13.609375-27.597656c-11.398438-22.796875-10.800782-50.199219 2.101562-72.097656l50.207032-87.597657c2.097656-3.300781 5.398437-6 9.300781-6.898437 3.597656-1.199219 7.796875-.601563 11.398437 1.5l103.496094 60.296875c7.199219 4.199219 9.601562 13.199219 5.402344 20.398438zm0 0"/><path d="m438.675781 429.085938-6.300781 12c-13.199219 24.597656-38.699219 39.898437-66.296875 39.898437h-110.085937c-8.398438 0-15-6.601563-15-15v-119.996094c0-8.398437 6.601562-15 15-15h125.984374l54.738282 42.800781zm0 0"/><path d="m444.386719 161.394531-103.496094 60.296875c-2.398437 1.5-5.101563 2.097656-7.800781 2.097656-1.199219 0-2.398438-.296874-3.597656-.597656-3.902344-.898437-7.199219-3.597656-9.300782-6.898437l-64.199218-111.296875-5.351563-42.703125 65.953125-62.292969h8.695312c26.699219 0 51.601563 14.398438 64.796876 37.5l60 103.496094c3.902343 7.199218 1.5 16.199218-5.699219 20.398437zm0 0"/></g><path d="m501.773438 236.09375-28.585938-54.597656 15.296875-9c5.101563-3.300782 8.101563-9 7.199219-15.300782-.898438-6-5.398438-10.800781-11.097656-12.300781-7.800782-2.097656-111.59375-27.898437-125.09375-31.5-7.800782-1.800781-15.902344 2.703125-18.003907 10.5l-35.097656 124.496094c-1.5 6 .601563 12.300781 5.402344 15.902344 4.800781 3.898437 11.398437 4.199219 16.796875 1.199219l15-9 38.390625 74.496093 56.695312 98.097657 64.601563-119.398438c11.996094-22.796875 11.695312-51.394531-1.503906-73.59375zm0 0" fill="#c8ec4b"/><path d="m326.492188 395.488281-90-90c-4.199219-4.496093-10.496094-5.699219-16.195313-3.296875-5.703125 2.398438-9.300781 7.796875-9.300781 13.796875v15h-189.292969l54.296875 108.597657c12.597656 25.5 38.699219 41.398437 67.199219 41.398437h67.796875v16c0 6 3.597656 11.398437 9.300781 13.796875 4.398437 2.203125 11.792969 1.597656 16.195313-3.296875l90-91c6-5.699219 6-15.296875 0-20.996094zm0 0" fill="#c8ec4b"/><path d="m316.59375 0h-129.898438c-25.609374 0-51.382812 13.863281-64.796874 37.5l-38.101563 65.996094-15-9c-5.398437-3-12-2.699219-16.796875 1.199218-4.800781 3.601563-6.902344 9.898438-5.402344 15.898438.871094 3.089844 37.371094 132.558594 35.101563 124.5 2.285156 8.382812 11.117187 12.21875 17.996093 10.496094l125.097657-31.496094c5.699219-1.5 10.199219-6.300781 11.097656-12.300781.902344-6.300781-2.097656-12-7.199219-15.296875l-15.296875-9 42.597657-73.5zm0 0" fill="#c8ec4b"/></svg>